<svg width="13" height="13" viewBox="0 0 13 13" fill="none" xmlns="http://www.w3.org/2000/svg">
<rect width="13" height="13" fill="#1E1E1E"/>
<rect width="13" height="13" rx="1" fill="#2261FF"/>
<path d="M7.36278 6.45272L7.46429 6.31089C8.2312 6.32139 8.8797 6.43696 9.40977 6.65759C9.93985 6.86772 10.3346 7.1724 10.594 7.57163C10.8647 7.97087 11 8.45416 11 9.02149C11 9.60984 10.8477 10.1299 10.5432 10.5817C10.25 11.0229 9.78195 11.3696 9.1391 11.6218C8.50752 11.8739 7.69549 12 6.70301 12H2V11.3223L3.67481 10.9914L3.45489 11.2751V1.75645L3.72556 2.05587L2 1.75645V1.0788L4.79135 1H6.8891C7.70113 1 8.37782 1.10506 8.91917 1.31519C9.46053 1.52531 9.86654 1.82999 10.1372 2.22923C10.4079 2.62846 10.5432 3.117 10.5432 3.69484C10.5432 4.45129 10.2951 5.0659 9.79887 5.53868C9.30263 6.01146 8.4906 6.31614 7.36278 6.45272ZM6.6015 1.94556H4.58835L4.84211 1.70917V6.13754L4.58835 5.91691H6.17857C6.84399 5.91691 7.39662 5.83811 7.83647 5.68052C8.27632 5.52292 8.60338 5.29179 8.81767 4.98711C9.03195 4.68243 9.1391 4.30946 9.1391 3.86819C9.1391 3.43744 9.04323 3.08023 8.8515 2.79656C8.65977 2.51289 8.37782 2.30277 8.00564 2.16619C7.63346 2.0191 7.16541 1.94556 6.6015 1.94556ZM6.6015 11.0544C7.26692 11.0544 7.81955 10.9704 8.2594 10.8023C8.69925 10.6342 9.02632 10.3978 9.2406 10.0931C9.46616 9.77794 9.57895 9.39446 9.57895 8.94269C9.57895 8.50143 9.47744 8.12846 9.27444 7.82378C9.08271 7.5086 8.79511 7.26695 8.41165 7.09885C8.03947 6.93075 7.58835 6.8467 7.05827 6.8467H4.58835L4.84211 6.59456V11.2751L4.58835 11.0544H6.6015Z" fill="white"/>
</svg>
