<svg width="14" height="16" viewBox="0 0 14 16" fill="none" xmlns="http://www.w3.org/2000/svg">
<rect y="2" width="14" height="14" rx="2" fill="#1556FD"/>
<path d="M7.65637 8.735L7.76137 8.57C8.44137 8.58 9.02137 8.68 9.50137 8.87C9.99137 9.06 10.3614 9.345 10.6114 9.725C10.8614 10.095 10.9864 10.565 10.9864 11.135C10.9864 11.715 10.8464 12.22 10.5664 12.65C10.2864 13.08 9.85637 13.415 9.27637 13.655C8.70637 13.885 7.98137 14 7.10137 14H2.82637V13.205L4.28137 12.86L4.05637 13.19V4.355L4.32637 4.685L2.82637 4.37V3.575L5.52637 3.5H7.28137C8.00137 3.5 8.60637 3.6 9.09637 3.8C9.58637 3.99 9.95637 4.275 10.2064 4.655C10.4564 5.035 10.5814 5.51 10.5814 6.08C10.5814 6.83 10.3464 7.43 9.87637 7.88C9.41637 8.33 8.67637 8.615 7.65637 8.735ZM6.96637 4.61H5.33137L5.58637 4.34V8.345L5.33137 8.105H6.60637C7.12637 8.105 7.56637 8.04 7.92637 7.91C8.29637 7.78 8.57137 7.58 8.75137 7.31C8.94137 7.04 9.03637 6.7 9.03637 6.29C9.03637 5.89 8.95137 5.57 8.78137 5.33C8.62137 5.08 8.38637 4.9 8.07637 4.79C7.77637 4.67 7.40637 4.61 6.96637 4.61ZM6.96637 12.89C7.49637 12.89 7.94137 12.825 8.30137 12.695C8.66137 12.555 8.93637 12.35 9.12637 12.08C9.31637 11.8 9.41137 11.45 9.41137 11.03C9.41137 10.62 9.32637 10.28 9.15637 10.01C8.98637 9.74 8.74637 9.535 8.43637 9.395C8.13637 9.255 7.78137 9.185 7.37137 9.185H5.33137L5.58637 8.9V13.145L5.33137 12.89H6.96637Z" fill="white"/>
</svg>
